{"title":"The.City.Of.The.Dead.1960.HQ.720p.x264.AC3.[FrOnkY]","uid":14161510,"size":2065027494,"categoryP":"video","categoryS":"hd___movies","magnet":"?xt=urn:btih:b450dbacc2fa5216f8fad397e17c19586c1dde57&amp;dn=The.City.Of.The.Dead.1960.HQ.720p.x264.AC3.%5BFrOnkY%5D&amp;tr=udp%3A%2F%2Ftracker.leechers-paradise.org%3A6969&amp;tr=udp%3A%2F%2Fzer0day.ch%3A1337&amp;tr=udp%3A%2F%2Fopen.demonii.com%3A1337&amp;tr=udp%3A%2F%2Ftracker.coppersurfer.tk%3A6969&amp;tr=udp%3A%2F%2Fexodus.desync.com%3A6969","seeders":0,"leechers":1,"uploader":"HDmEntEs","files":1,"time":1459723074,"description":"The.City.Of.The.Dead.aka.Horror.Hotel.1960.HQ.720p.x264.AC3.[FrOnkY].mkv\r\n\r\n\r\nFormat                                   : Matroska\r\nFormat version                           : Version 4 / Version 2\r\nFile size                                : 1.92 GiB\r\nDuration                                 : 1h 17mn\r\nOverall bit rate                         : 3 531 Kbps\r\nWriting application                      : mkvmerge v6.9.1 ('Blue Panther') 32bit\r\nWriting library                          : libebml v1.3.0 + libmatroska v1.4.1\r\nAttachements                             : CityDead1.jpg / CityDead2.jpg\r\n\r\nVideo\r\nID                                       : 1\r\nFormat                                   : AVC\r\nFormat/Info                              : Advanced Video Codec\r\nFormat profile                           : High L4.1\r\nFormat settings, CABAC                   : Yes\r\nFormat settings, ReFrames                : 9 frames\r\nCodec ID                                 : V_MPEG4/ISO/AVC\r\nDuration                                 : 1h 17mn\r\nBit rate                                 : 3 333 Kbps\r\nWidth                                    : 1 192 pixels\r\nHeight                                   : 720 pixels\r\nDisplay aspect ratio                     : 1.656\r\nFrame rate mode                          : Constant\r\nFrame rate                               : 23.976 fps\r\nColor space                              : YUV\r\nChroma subsampling                       : 4:2:0\r\nBit depth                                : 8 bits\r\nScan type                                : Progressive\r\nBits/(Pixel*Frame)                       : 0.162\r\nStream size                              : 1.78 GiB (93%)\r\nWriting library                          : x264 core 142 r2491 24e4fed\r\nLanguage                                 : English\r\nDefault                                  : Yes\r\nForced                                   : No\r\n\r\nAudio\r\nID                                       : 2\r\nFormat                                   : AC-3\r\nFormat/Info                              : Audio Coding 3\r\nMode extension                           : CM (complete main)\r\nFormat settings, Endianness              : Big\r\nCodec ID                                 : A_AC3\r\nDuration                                 : 1h 17mn\r\nBit rate mode                            : Constant\r\nBit rate                                 : 192 Kbps\r\nChannel(s)                               : 2 channels\r\nChannel positions                        : Front: L R\r\nSampling rate                            : 48.0 KHz\r\nBit depth                                : 16 bits\r\nStream size                              : 107 MiB (5%)\r\nLanguage                                 : English\r\nDefault                                  : Yes\r\nForced                                   : No\r\n\r\nText #1\r\nID                                       : 3\r\nFormat                                   : UTF-8\r\nCodec ID                                 : S_TEXT/UTF8\r\nCodec ID/Info                            : UTF-8 Plain Text\r\nLanguage                                 : Spanish\r\nDefault                                  : No\r\nForced                                   : No\r\n\r\nText #2\r\nID                                       : 4\r\nFormat                                   : UTF-8\r\nCodec ID                                 : S_TEXT/UTF8\r\nCodec ID/Info                            : UTF-8 Plain Text\r\nLanguage                                 : French\r\nDefault                                  : No\r\nForced                                   : No\r\n\r\nText #3\r\nID                                       : 5\r\nFormat                                   : UTF-8\r\nCodec ID                                 : S_TEXT/UTF8\r\nCodec ID/Info                            : UTF-8 Plain Text\r\nLanguage                                 : Portuguese\r\nDefault                                  : No\r\nForced                                   : No\r\n\r\nMenu\r\n00:00:00.000                             : en:Chapter 01\r\n00:03:54.111                             : en:Chapter 02\r\n00:08:06.999                             : en:Chapter 03\r\n00:12:47.555                             : en:Chapter 04\r\n00:15:51.444                             : en:Chapter 05\r\n00:19:22.222                             : en:Chapter 06\r\n00:23:24.111                             : en:Chapter 07\r\n00:28:01.333                             : en:Chapter 08\r\n00:33:23.222                             : en:Chapter 09\r\n00:38:45.666                             : en:Chapter 10\r\n00:39:42.111                             : en:Chapter 11\r\n00:43:55.777                             : en:Chapter 12\r\n00:48:34.888                             : en:Chapter 13\r\n00:52:16.999                             : en:Chapter 14\r\n00:56:00.000                             : en:Chapter 15\r\n01:00:39.111                             : en:Chapter 16\r\n01:04:33.333                             : en:Chapter 17\r\n01:09:27.666                             : en:Chapter 18\r\n\r\n \nhttp://i.imgur.com/EHBwEay.png","torrent":{"xt":"urn:btih:b450dbacc2fa5216f8fad397e17c19586c1dde57","amp;dn":"The.City.Of.The.Dead.1960.HQ.720p.x264.AC3.%5BFrOnkY%5D","amp;tr":["udp%3A%2F%2Ftracker.leechers-paradise.org%3A6969","udp%3A%2F%2Fzer0day.ch%3A1337","udp%3A%2F%2Fopen.demonii.com%3A1337","udp%3A%2F%2Ftracker.coppersurfer.tk%3A6969","udp%3A%2F%2Fexodus.desync.com%3A6969"],"infoHash":"b450dbacc2fa5216f8fad397e17c19586c1dde57","infoHashBuffer":{"type":"Buffer","data":[180,80,219,172,194,250,82,22,248,250,211,151,225,124,25,88,108,29,222,87]},"announce":[],"urlList":[]}}